<svg xmlns="http://www.w3.org/2000/svg" fill="none" viewBox="0 0 197 65" height="65" width="197">
<path fill="white" d="M60.6785 40.6843V24.2396H64.7599C68.4396 24.2396 71.0594 26.103 71.0594 29.2168C71.0594 32.1667 68.6056 34.1962 65.3031 34.1962C64.5713 34.1962 63.8887 34.1019 63.1794 33.9133V40.6843H60.6785ZM63.1794 33.4664C63.6509 33.655 64.0998 33.7021 64.5939 33.7021C66.6705 33.7021 68.3453 31.9084 68.3453 29.1021C68.3453 26.2957 66.5516 24.666 63.9809 24.666H63.1794V33.4664Z"></path>
<path fill="white" d="M73.2385 22.4951H75.4319V30.988H75.5262C76.3524 29.5735 77.7197 28.8171 79.1833 28.8171C81.6371 28.8171 82.699 30.2562 82.699 32.4968V40.6843H80.481V32.5214C80.481 31.3652 80.3641 29.6432 78.3818 29.6432C76.541 29.6432 75.5037 31.318 75.5037 33.1363V40.6863H73.2385V22.4971V22.4951Z"></path>
<path fill="white" d="M90.5523 28.8171C94.0906 28.8171 95.5542 31.482 95.5542 34.8809C95.5542 37.5007 94.6113 40.8503 90.3392 40.8503C86.5406 40.8503 85.3373 38.0665 85.3373 34.9752C85.3373 31.8838 86.7292 28.8171 90.5523 28.8171ZM90.4581 40.4731C92.7704 40.4731 93.1476 37.6175 93.1476 34.9526C93.1476 32.0027 92.6044 29.1718 90.4581 29.1718C88.3118 29.1718 87.7685 32.2631 87.7685 35.1412C87.7685 38.0193 88.4286 40.4731 90.4581 40.4731Z"></path>
<path fill="white" d="M97.8153 36.5803C97.7907 36.7217 97.7907 36.8857 97.7907 36.9821C97.7907 39.2472 99.0883 40.4506 101.329 40.4506C103.17 40.4506 104.23 39.3641 104.23 38.0214C104.23 34.6943 97.6944 35.7562 97.6944 32.0294C97.6944 30.6375 98.6373 28.8212 101.587 28.8212C104.961 28.8212 105.763 31.0147 105.763 32.3369C105.763 32.5255 105.763 32.7141 105.716 32.8555H103.758C103.758 29.9999 102.579 29.1984 101.423 29.1984C100.267 29.1984 99.5598 30.0717 99.5598 31.2976C99.5598 34.1039 106.165 33.0441 106.165 37.3838C106.165 38.4457 105.363 40.8524 101.47 40.8524C98.828 40.8524 97.4135 39.4604 97.4135 37.1235C97.4135 37.0067 97.4135 36.7689 97.4361 36.5803H97.8133H97.8153Z"></path>
<path fill="white" d="M124.219 39.5055C123.11 40.3542 121.695 40.8975 119.971 40.9446C117.282 40.9446 114.662 40.0016 114.52 36.8857C114.52 36.7197 114.52 36.5557 114.545 36.3896C114.592 35.2335 115.135 32.9683 117.778 31.646L117.589 31.4349C116.691 30.3259 116.15 29.2415 116.15 28.1324C116.15 26.0087 117.425 24.1699 120.326 24.051C120.467 24.0264 120.586 24.0264 120.728 24.0264C120.869 24.0264 121.01 24.0264 121.152 24.051C123.487 24.1924 124.856 25.8447 124.856 27.7552C124.856 27.9213 124.856 28.1099 124.832 28.2739H122.732C122.732 25.8447 121.812 24.381 120.42 24.381C118.887 24.381 118.155 25.7504 118.155 27.1649C118.155 28.155 118.532 29.2415 119.217 30.0655L119.547 30.4202L125.492 37.4986C126.152 36.5085 126.576 35.256 126.67 33.7698C126.718 33.1794 126.695 32.5665 126.623 31.9535H127C127.07 32.5439 127.07 33.1322 127.025 33.7001C126.931 35.1863 126.482 36.6008 125.75 37.7815L128.179 40.6843H125.182L124.215 39.5055H124.219ZM118.085 32.0499C117.825 32.4025 117.589 32.8514 117.401 33.3004C117.07 34.149 116.929 35.092 117.023 36.037C117.306 38.4211 118.887 39.8827 121.082 39.8827H121.412C122.308 39.8356 123.134 39.5527 123.866 39.0812L118.085 32.0499Z"></path>
<path fill="white" d="M148.449 33.5115H150.831V40.8954H150.573L148.685 37.7815C147.811 39.7864 145.901 40.8483 143.824 40.8483C138.775 40.8483 136.086 37.8984 136.086 32.7797C136.086 27.1403 139.46 24.0735 143.8 24.0735C148.683 24.0735 150.36 26.9517 150.36 29.1451C150.36 29.3583 150.36 29.6166 150.335 29.7826H147.975C147.975 25.7012 145.993 24.4507 143.822 24.4507C141.18 24.4507 138.798 26.7159 138.798 32.4004C138.798 38.0849 141.086 40.4219 143.917 40.4219C147.338 40.4219 148.447 37.8492 148.447 35.6783V33.5074L148.449 33.5115Z"></path>
<path fill="white" d="M154.168 29.2414C154.664 29.0303 155.466 28.8868 156.22 28.8397C156.645 28.8397 157.047 28.8643 157.471 28.8868C159.429 29.1697 160.421 30.4448 160.728 32.2836C161.224 34.8788 161.577 36.8365 161.907 38.4642C162.19 39.7618 162.52 40.2333 163.157 40.2804H163.463L163.51 40.6576C163.157 40.7765 162.708 40.8237 162.426 40.8462C160.964 40.8462 160.066 40.5387 159.689 39.0054C158.604 40.2312 157.401 40.797 156.054 40.8462C155.888 40.8462 155.749 40.8462 155.607 40.8216C153.98 40.7273 152.846 39.5957 152.846 37.7303C152.846 34.805 155.913 33.5074 158.674 33.4602C158.297 31.1951 157.59 29.4259 155.607 29.4259C155.23 29.4259 154.759 29.4505 154.263 29.592L154.168 29.2374V29.2414ZM156.952 39.8827C157.848 39.8827 158.935 39.3866 159.595 38.6323C159.312 37.4289 159.051 35.6352 158.721 33.819C155.63 34.0076 155.136 36.2256 155.136 37.3347C155.136 39.032 155.796 39.8827 156.952 39.8827Z"></path>
<path fill="white" d="M166.612 23.6041C167.391 23.6041 168.051 24.2642 168.051 25.0432C168.051 25.8221 167.391 26.4576 166.612 26.4576C165.833 26.4576 165.197 25.8201 165.197 25.0432C165.197 24.2662 165.835 23.6041 166.612 23.6041ZM167.696 28.9586V40.6843H165.408C165.408 37.5232 165.431 32.1442 165.431 28.9586H167.696Z"></path>
<path fill="white" d="M171.257 29.2414C171.753 29.0303 172.554 28.8868 173.309 28.8397C173.733 28.8397 174.135 28.8643 174.559 28.8868C176.517 29.1697 177.509 30.4448 177.815 32.2836C178.311 34.8788 178.663 36.8365 178.993 38.4642C179.276 39.7618 179.606 40.2333 180.244 40.2804H180.549L180.596 40.6576C180.242 40.7765 179.793 40.8237 179.512 40.8462C178.048 40.8462 177.152 40.5387 176.775 39.0054C175.691 40.2312 174.487 40.797 173.143 40.8462C172.977 40.8462 172.835 40.8462 172.694 40.8216C171.066 40.7273 169.932 39.5957 169.932 37.7303C169.932 34.805 172.999 33.5074 175.76 33.4602C175.383 31.1951 174.674 29.4259 172.694 29.4259C172.317 29.4259 171.845 29.4505 171.349 29.592L171.255 29.2374L171.257 29.2414ZM174.041 39.8827C174.936 39.8827 176.023 39.3866 176.683 38.6323C176.4 37.4289 176.14 35.6352 175.81 33.819C172.718 34.0076 172.224 36.2256 172.224 37.3347C172.224 39.032 172.884 39.8827 174.041 39.8827Z"></path>
<path fill="white" d="M45.1809 45.5303L34.4063 34.7415L46.6732 42.9495C46.745 42.7506 46.8085 42.5456 46.868 42.3386L34.7466 34.229L47.3292 39.4481C47.3415 39.2309 47.3476 39.0115 47.3517 38.7901L34.9803 33.6591L47.2124 36.0944C47.1878 35.8792 47.1591 35.6639 47.1283 35.4507L35.1013 33.0544H46.6671C46.6179 32.8473 46.5646 32.6423 46.5113 32.4394H35.1013L45.8409 30.3013C45.7692 30.1024 45.6954 29.9077 45.6216 29.717L34.9824 31.8367L44.736 27.7921C44.6397 27.6097 44.5392 27.4293 44.4367 27.2489L34.7487 31.2668L43.3174 25.5331C43.1965 25.3671 43.0797 25.199 42.9526 25.037L34.4063 30.7543L41.6324 23.52C41.4909 23.3725 41.3475 23.2249 41.1999 23.0814L33.9717 30.3197L39.6972 21.7386C39.5373 21.6095 39.3713 21.4885 39.2073 21.3635L33.4592 29.9753L37.5038 20.1971C37.3275 20.0884 37.1471 19.988 36.9667 19.8855L32.8914 29.7375L35.0398 18.922C34.8471 18.838 34.6564 18.7519 34.4617 18.676L32.2867 29.6207V17.9626C32.0837 17.9093 31.8767 17.8581 31.6717 17.8109V29.6186L29.2466 17.4153C29.0355 17.3968 28.8243 17.3784 28.6091 17.3661L31.067 29.7375L25.9974 17.4809C25.7883 17.5116 25.5813 17.5465 25.3763 17.5875L30.4991 29.9712L22.861 18.5264C22.6827 18.6309 22.5125 18.7437 22.3465 18.8626L29.9887 30.3136L20.5282 20.8408C20.4154 21.0212 20.3109 21.2077 20.2125 21.3963L29.5541 30.7502L19.2367 23.848C19.1732 24.0551 19.1117 24.2601 19.0522 24.4651L29.2118 31.2607L18.4434 26.7938C18.3921 26.9947 18.3388 27.1956 18.2896 27.3965L28.9781 31.8285L17.7484 29.592C17.7013 29.7929 17.6603 29.9938 17.6132 30.1926L28.8571 32.4312H17.1109C17.074 32.6013 17.033 32.7715 16.9961 32.9416C16.9879 32.9765 16.9818 33.0134 16.9756 33.0482H28.8571L16.6148 35.4856C16.6046 35.6967 16.6005 35.9058 16.6066 36.1149L28.976 33.6509L17.1847 38.5421C17.2729 38.7266 17.3713 38.909 17.4779 39.0874L29.2118 34.2208L19.001 41.0512C19.1076 41.164 19.2142 41.2747 19.3228 41.3833C19.3618 41.4222 19.4028 41.4571 19.4438 41.496L29.5541 34.7312L21.2395 43.0581C21.4035 43.1852 21.5675 43.3102 21.7356 43.4312L29.9887 35.1679L23.6441 44.6755C23.8224 44.7801 24.0008 44.8805 24.1812 44.9789L30.5012 35.5081L26.1758 45.9629C26.3644 46.0449 26.553 46.1228 26.7436 46.2007L31.069 35.7459L28.8428 46.953C29.0396 47.0145 29.2343 47.0781 29.4331 47.1355L31.6717 35.8669V47.6684C31.8767 47.7074 32.0817 47.7402 32.2867 47.773V35.8648L34.7097 48.0661C34.9209 48.0825 35.1341 48.101 35.3452 48.1112L32.8894 35.748L37.9958 48.0907C38.211 48.0784 38.4263 48.06 38.6415 48.0415L33.4572 35.5102L41.5258 47.6008C41.741 47.5516 41.9522 47.4983 42.1551 47.4347L33.9697 35.1679L44.7463 45.9588C44.898 45.8194 45.0435 45.6738 45.1788 45.5221L45.1809 45.5303Z"></path>
</svg>
