<svg xmlns="http://www.w3.org/2000/svg" fill="none" viewBox="0 0 162 34" height="34" width="162">
<path fill="#237EB6" d="M39.403 31.9539C39.2277 31.9539 39.1107 32.0124 39.0523 32.1293C38.8184 32.4216 38.5261 32.6554 38.1754 32.8308C37.7662 33.0062 37.3569 33.1231 36.9477 33.1231C35.4862 33.1231 34.2586 31.8955 34.2586 30.317C34.2586 28.914 35.077 27.9202 36.4216 27.6864C37.5323 27.5694 38.2338 27.8033 38.8769 28.4463C39.0523 28.6802 39.3446 28.6217 39.52 28.4463C39.6953 28.3294 39.7538 28.0956 39.5784 27.8618C38.76 26.9849 37.6493 26.6341 36.3047 26.8095C34.6094 27.1018 33.3232 28.5633 33.3232 30.317C33.3232 32.4216 34.9017 34 36.8893 34C37.4154 34 38 33.8831 38.5261 33.5908C38.9938 33.3569 39.403 33.0062 39.6953 32.597C39.8123 32.4801 39.8123 32.3047 39.7538 32.1878C39.7538 32.0708 39.5784 31.9539 39.403 31.9539Z"></path>
<path fill="#237EB6" d="M53.5508 33.0063H49.4002V30.8433H53.3754C53.4924 30.8433 53.6093 30.7848 53.6677 30.7264C53.7262 30.6679 53.7847 30.551 53.7847 30.4341C53.7847 30.2003 53.6677 30.0249 53.3754 30.0249H49.4002V27.7449H53.5508C53.8431 27.7449 53.96 27.5111 53.96 27.3357C53.96 27.2188 53.9016 27.1019 53.8431 27.0434C53.7847 26.985 53.6678 26.9265 53.5508 26.9265H49.0494C48.6987 26.9265 48.4648 27.1603 48.4648 27.4526V33.3571C48.4648 33.6494 48.6987 33.8832 49.0494 33.8832H53.5508C53.7262 33.8832 53.8431 33.8248 53.9016 33.7663C53.96 33.7078 54.0185 33.5909 54.0185 33.474C54.0185 33.2402 53.8431 33.0063 53.5508 33.0063Z"></path>
<path fill="#237EB6" d="M68.2241 26.8095C67.9903 26.8095 67.7564 26.9265 67.7564 27.2188V31.0186L67.8734 32.3632L63.8981 27.0434C63.7227 26.8096 63.4889 26.6926 63.255 26.8095C63.0212 26.868 62.9043 27.1018 62.9043 27.3357V33.4739C62.9043 33.7662 63.1381 33.9416 63.372 33.9416C63.6058 33.9416 63.8396 33.7662 63.8396 33.4739V29.6741L63.7812 28.4464L67.6395 33.5909C67.7564 33.8247 68.1072 33.9416 68.341 33.8247C68.5749 33.7662 68.7503 33.5909 68.7503 33.2986V27.1603C68.6918 26.9265 68.3995 26.8095 68.2241 26.8095Z"></path>
<path fill="#237EB6" d="M82.8963 26.8679H77.3427C77.1673 26.8679 77.0504 26.9264 76.9919 26.9848C76.9334 27.0433 76.875 27.1602 76.875 27.2771C76.875 27.511 77.0504 27.7448 77.3427 27.7448H79.6226V33.4739C79.6226 33.7662 79.8564 33.9415 80.0903 33.9415C80.3241 33.9415 80.5579 33.7662 80.5579 33.4739C80.5579 32.4801 80.5579 31.5447 80.5579 30.5509C80.5579 29.6155 80.5579 28.6802 80.5579 27.6864H82.8963C83.1886 27.6864 83.364 27.4525 83.364 27.2187C83.364 26.9848 83.1886 26.8679 82.8963 26.8679Z"></path>
<path fill="#237EB6" d="M97.5128 29.2648C97.5128 27.8033 96.4021 26.8679 94.6483 26.8679H92.0761C91.7838 26.8679 91.6084 27.0433 91.6084 27.3356V33.4739C91.6084 34.0585 92.5438 34.0585 92.5438 33.4739V31.4862H94.5314L96.6944 33.8246C96.8113 33.9415 96.9282 34 97.0452 34C97.1036 34 97.1036 34 97.1621 34C97.3374 33.9415 97.4544 33.8246 97.5128 33.7077C97.5713 33.5323 97.5128 33.4154 97.3959 33.24L95.759 31.4862C96.9282 31.1939 97.5128 30.434 97.5128 29.2648ZM96.5775 29.2648C96.5775 29.6155 96.4606 29.9078 96.2267 30.1417C95.876 30.4924 95.3498 30.6678 94.6483 30.6678H92.5438V27.7448H94.6483C95.8175 27.7448 96.5775 28.3879 96.5775 29.2648Z"></path>
<path fill="#237EB6" d="M109.496 26.9848C109.438 26.8094 109.262 26.751 109.087 26.751C108.912 26.751 108.736 26.8094 108.678 26.9848L105.404 33.3569C105.287 33.5907 105.463 33.8246 105.638 33.9415C105.696 34 105.813 34 105.872 34C106.047 34 106.164 33.9415 106.281 33.7661L107.158 32.1292H111.075L111.893 33.7661C111.952 33.9415 112.127 34 112.302 34C112.478 34 112.653 33.883 112.77 33.7661C112.828 33.6492 112.828 33.4738 112.77 33.3569L109.496 26.9848ZM110.665 31.2524H107.509L109.087 28.0955L110.665 31.2524Z"></path>
<path fill="#237EB6" d="M126.099 33.006H122.182V27.2185C122.182 26.6339 121.247 26.6339 121.247 27.2185V33.3567C121.247 33.649 121.422 33.8244 121.715 33.8244H126.099C126.392 33.8244 126.567 33.5906 126.567 33.4152C126.567 33.2398 126.45 33.006 126.099 33.006Z"></path>
<path fill="#324893" d="M14.4395 8.74539L9.06124 15.9359H8.41818L3.15681 8.68693V20.7881H0V4.18555H3.62448L8.8274 11.3176L14.0303 4.18555H17.5963V20.7881H14.4395V8.74539Z"></path>
<path fill="#324893" d="M20.7539 20.7881V4.18555H23.8523V20.7881H20.7539Z"></path>
<path fill="#324893" d="M59.6868 20.7879H55.9453L51.0932 15.2343H48.0533V20.7879H44.8965V4.12695C47.5272 4.12695 50.1578 4.12695 52.7885 4.12695C56.7053 4.12695 58.7514 6.75763 58.7514 9.62215C58.7514 11.9021 57.6991 14.182 54.5423 14.8251L59.5698 20.4956V20.7879H59.6868ZM48.1118 7.04993V12.3698H52.9055C54.8931 12.3698 55.77 11.0252 55.77 9.73908C55.77 8.39451 54.8931 7.1084 52.9055 7.1084H48.1118V7.04993Z"></path>
<path fill="#324893" d="M91.3723 8.1609C90.7877 7.22554 89.1508 6.29019 87.2217 6.29019C84.7664 6.29019 83.5972 7.28401 83.5972 8.51166C83.5972 9.97315 85.4094 10.3824 87.4555 10.6162C91.08 11.0254 94.4707 11.9608 94.4707 15.8776C94.4707 19.5605 91.0216 21.1389 87.1632 21.1389C83.5972 21.1389 80.8496 20.0867 79.5635 17.0468L82.3111 15.7022C83.071 17.5144 85.1171 18.3329 87.2217 18.3329C89.2678 18.3329 91.2554 17.6314 91.2554 15.8191C91.2554 14.2407 89.5601 13.5976 87.2217 13.3638C83.6556 12.9546 80.3819 12.0777 80.3819 8.33628C80.3819 4.94562 83.8895 3.54259 87.1048 3.48413C89.7939 3.48413 92.5999 4.24411 93.9445 6.75787L91.3723 8.1609Z"></path>
<path fill="#324893" d="M140.42 15.8774H135.743V20.788H132.586V4.18552C135.217 4.18552 137.789 4.18552 140.42 4.18552C148.545 4.12706 148.545 15.8774 140.42 15.8774ZM135.684 13.0129H140.361C144.395 13.0129 144.336 7.1085 140.361 7.1085H135.684V13.0129Z"></path>
<path fill="#324893" d="M161.231 20.7881H148.779C148.779 15.2344 148.779 9.73921 148.779 4.18555H161.231V7.22544H151.936V11.0253H160.939V13.9483H151.936V17.6897H161.231V20.7881Z"></path>
<path fill="#237EB6" d="M41.2731 11.4929L40.2208 12.0775C40.0454 12.136 39.87 12.136 39.8116 11.9606L39.4023 11.2591L40.9808 10.3237L41.39 11.0252C41.4484 11.2591 41.39 11.4345 41.2731 11.4929Z"></path>
<path fill="#237EB6" d="M33.4387 0.61956L34.491 0.0349638C34.6663 -0.0234958 34.8417 -0.0234975 34.9002 0.151881L35.3094 0.853394L33.731 1.78875L33.3218 1.08724C33.2633 0.911859 33.3218 0.678019 33.4387 0.61956Z"></path>
<path fill="#237EB6" d="M41.4478 12.3114L40.8047 12.6622C40.6878 12.7206 40.5709 12.6622 40.5124 12.6037L40.3955 12.4283L41.4478 11.8438L41.5647 12.0191C41.6232 12.136 41.5647 12.253 41.4478 12.3114Z"></path>
<path fill="#237EB6" d="M43.6111 14.2991H38.8174V14.9421H43.6111V14.2991Z"></path>
<path fill="#324893" d="M69.0407 21.139C64.247 21.139 60.3887 17.2807 60.3887 12.487C60.3887 7.6933 64.247 3.83496 69.0407 3.83496C73.8344 3.83496 77.6927 7.6933 77.6927 12.487C77.6927 17.2222 73.7759 21.139 69.0407 21.139ZM69.0407 6.69948C65.8254 6.69948 63.2532 9.33016 63.2532 12.487C63.2532 15.6438 65.8839 18.2745 69.0407 18.2745C72.256 18.2745 74.8282 15.6438 74.8282 12.487C74.8282 9.33016 72.1975 6.69948 69.0407 6.69948Z"></path>
<path fill="#324893" d="M40.1614 15.5266C39.1676 17.1635 37.2969 18.2742 35.2508 18.2742C32.0355 18.2742 29.4633 15.6436 29.4633 12.4867C29.4633 9.32992 32.094 6.69923 35.2508 6.69923C35.4846 6.69923 35.7185 6.69924 35.9523 6.7577C36.0108 6.29002 36.0108 5.76388 35.9523 5.29621C35.8938 4.94545 35.8354 4.59469 35.7769 4.18548C35.7769 4.06856 35.7769 3.95164 35.7769 3.83472C35.6015 3.83472 35.4846 3.83472 35.3092 3.83472C30.5156 3.83472 26.6572 7.69305 26.6572 12.4867C26.6572 17.2804 30.5156 21.1388 35.3092 21.1388C38.9922 21.1388 42.149 18.8004 43.3767 15.5266H40.1614Z"></path>
<path fill="#324893" d="M121.538 21.139C116.744 21.139 112.886 17.2807 112.886 12.487C112.886 7.6933 116.744 3.83496 121.538 3.83496C126.331 3.83496 130.19 7.6933 130.19 12.487C130.19 17.2222 126.273 21.139 121.538 21.139ZM121.538 6.69948C118.322 6.69948 115.75 9.33016 115.75 12.487C115.75 15.6438 118.381 18.2745 121.538 18.2745C124.695 18.2745 127.325 15.6438 127.325 12.487C127.325 9.33016 124.695 6.69948 121.538 6.69948Z"></path>
<path fill="#324893" d="M109.554 16.3452C108.502 17.5144 106.982 18.2743 105.287 18.2743C102.072 18.2743 99.4993 15.6437 99.4993 12.4868C99.4993 9.33003 102.13 6.69935 105.287 6.69935C106.924 6.69935 108.385 7.40086 109.437 8.45313L111.483 6.40705C109.905 4.82864 107.742 3.77637 105.287 3.77637C100.493 3.77637 96.6348 7.6347 96.6348 12.4284C96.6348 17.2221 100.493 21.0804 105.287 21.0804C107.742 21.0804 110.022 20.0281 111.6 18.3328C110.899 17.7482 110.256 17.0467 109.554 16.3452Z"></path>
<path fill="#237EB6" d="M36.4775 1.96414L40.1605 8.21931L41.1543 9.73926C41.3297 9.56388 41.3881 9.33005 41.2712 9.15467L36.5945 1.1457C36.4775 0.91186 36.1268 0.853408 35.8929 0.970327L33.7299 2.25644C33.4961 2.37335 33.4376 2.72411 33.5546 2.95795L38.2313 10.9669C38.3482 11.2007 38.699 11.2592 38.9328 11.1423L40.7451 10.09L36.1268 2.19797L36.4775 1.96414Z"></path>
</svg>
